<?xml version="1.0" encoding="UTF-8"?>
<!DOCTYPE svg PUBLIC "-//W3C//DTD SVG 1.1//EN" "http://www.w3.org/Graphics/SVG/1.1/DTD/svg11.dtd">
<!-- Creator: CorelDRAW 2021 (64-Bit) -->
<svg xmlns="http://www.w3.org/2000/svg" xml:space="preserve" width="2431px" height="1167px" version="1.1" style="shape-rendering:geometricPrecision; text-rendering:geometricPrecision; image-rendering:optimizeQuality; fill-rule:evenodd; clip-rule:evenodd"
viewBox="0 0 2947.45 1414.63"
 xmlns:xlink="http://www.w3.org/1999/xlink"
 xmlns:xodm="http://www.corel.com/coreldraw/odm/2003">
 <defs>
  <style type="text/css">
   <![CDATA[
    .fil0 {fill:#FEFEFE;fill-rule:nonzero}
   ]]>
  </style>
 </defs>
 <g id="Слой_x0020_1">
  <metadata id="CorelCorpID_0Corel-Layer"/>
  <g id="_1931355596368">
   <g>
    <g>
     <g>
      <path class="fil0" d="M711.52 813.77c-166,0 -300.12,134.43 -300.12,300.43 0,166 134.42,300.43 300.12,300.43 165.71,0 300.13,-134.43 300.13,-300.43 0,-166 -134.42,-300.43 -300.13,-300.43zm0 390.95c-49.92,0 -90.82,-40.6 -90.82,-90.52 0,-49.92 40.9,-90.52 90.82,-90.52 49.62,0 90.52,40.6 90.52,90.52 0,49.92 -40.59,90.52 -90.52,90.52z"/>
      <path class="fil0" d="M2897.52 867.9l-49.02 -399.36c-9.62,-76.69 -76.68,-132.93 -153.97,-128.72l-107.66 6.02 -334.11 -301.03c-32.18,-28.87 -73.68,-44.81 -116.99,-44.81l-678.74 0c-152.17,0 -300.13,52.03 -418.91,147.36l-378.62 304.03 -509.14 127.21c-65.55,16.24 -111.27,75.18 -111.27,142.55l0 146.75c-21.65,0 -39.09,17.45 -39.09,38.8l0 194.27c0,27.67 22.25,49.92 49.92,49.92l287.5 0c-1.21,-12.33 -3.61,-24.36 -3.61,-36.99 0,-208.71 169.01,-377.72 377.71,-377.72 208.71,0 377.72,169.01 377.72,377.72 0,12.93 -2.71,24.66 -3.91,36.99l796.03 0c-1.2,-12.33 -3.61,-24.36 -3.61,-36.99 0,-208.71 169.01,-377.72 377.71,-377.72 208.71,0 377.42,169.01 377.42,377.72 0,12.93 -2.41,24.66 -3.61,36.99l268.25 0c27.67,0 49.92,-22.25 49.92,-49.92l0 -183.15c0.3,-27.36 -22.25,-49.92 -49.92,-49.92zm-1007.14 -490.79l-946.69 47.82 181.34 -145.85c98.64,-79.1 221.03,-122.4 347.34,-122.4l418.31 0 0 220.43 -0.3 0zm157.28 -8.12l0 -212.01 61.65 0c21.35,0 41.8,7.82 57.74,22.25l193.37 173.83 -312.76 15.93z"/>
      <path class="fil0" d="M2255.46 813.77c-166,0 -300.12,134.43 -300.12,300.43 0,166 134.42,300.43 300.12,300.43 165.71,0 300.13,-134.43 300.13,-300.43 0,-166 -134.42,-300.43 -300.13,-300.43zm0 390.95c-49.92,0 -90.51,-40.6 -90.51,-90.52 0,-49.92 40.59,-90.52 90.51,-90.52 49.62,0 90.52,40.6 90.52,90.52 0,49.92 -40.59,90.52 -90.52,90.52z"/>
     </g>
    </g>
    <g>
    </g>
    <g>
    </g>
    <g>
    </g>
    <g>
    </g>
    <g>
    </g>
    <g>
    </g>
    <g>
    </g>
    <g>
    </g>
    <g>
    </g>
    <g>
    </g>
    <g>
    </g>
    <g>
    </g>
    <g>
    </g>
    <g>
    </g>
    <g>
    </g>
   </g>
  </g>
 </g>
</svg>
