<?xml version="1.0" encoding="UTF-8"?>
<!DOCTYPE svg PUBLIC "-//W3C//DTD SVG 1.1//EN" "http://www.w3.org/Graphics/SVG/1.1/DTD/svg11.dtd">
<!-- Creator: CorelDRAW 2021 (64-Bit) -->
<svg xmlns="http://www.w3.org/2000/svg" xml:space="preserve" width="2431px" height="1167px" version="1.1" style="shape-rendering:geometricPrecision; text-rendering:geometricPrecision; image-rendering:optimizeQuality; fill-rule:evenodd; clip-rule:evenodd"
viewBox="0 0 2051.8 984.76"
 xmlns:xlink="http://www.w3.org/1999/xlink"
 xmlns:xodm="http://www.corel.com/coreldraw/odm/2003">
 <defs>
  <style type="text/css">
   <![CDATA[
    .fil0 {fill:black;fill-rule:nonzero}
   ]]>
  </style>
 </defs>
 <g id="Слой_x0020_1">
  <metadata id="CorelCorpID_0Corel-Layer"/>
  <g id="_1931371867472">
   <g>
    <g>
     <g>
      <path class="fil0" d="M495.31 566.49c-115.56,0 -208.92,93.58 -208.92,209.14 0,115.56 93.57,209.13 208.92,209.13 115.35,0 208.93,-93.57 208.93,-209.13 0,-115.56 -93.58,-209.14 -208.93,-209.14zm0 272.15c-34.75,0 -63.22,-28.26 -63.22,-63.01 0,-34.75 28.47,-63.02 63.22,-63.02 34.55,0 63.02,28.27 63.02,63.02 0,34.75 -28.27,63.01 -63.02,63.01z"/>
      <path class="fil0" d="M2017.05 604.17l-34.12 -278.01c-6.7,-53.38 -53.39,-92.53 -107.19,-89.6l-74.94 4.19 -232.59 -209.56c-22.4,-20.09 -51.29,-31.19 -81.43,-31.19l-472.5 0c-105.93,0 -208.93,36.22 -291.62,102.58l-263.56 211.65 -354.43 88.55c-45.63,11.31 -77.45,52.34 -77.45,99.23l0 102.16c-15.08,0 -27.22,12.15 -27.22,27.01l0 135.24c0,19.26 15.49,34.75 34.75,34.75l200.14 0c-0.84,-8.59 -2.52,-16.96 -2.52,-25.75 0,-145.29 117.66,-262.94 262.94,-262.94 145.29,0 262.94,117.65 262.94,262.94 0,9 -1.88,17.16 -2.72,25.75l554.14 0c-0.84,-8.59 -2.51,-16.96 -2.51,-25.75 0,-145.29 117.65,-262.94 262.94,-262.94 145.28,0 262.73,117.65 262.73,262.94 0,9 -1.68,17.16 -2.52,25.75l186.74 0c19.26,0 34.75,-15.49 34.75,-34.75l0 -127.5c0.21,-19.05 -15.49,-34.75 -34.75,-34.75zm-701.1 -341.65l-659.02 33.29 126.23 -101.54c68.67,-55.05 153.87,-85.2 241.8,-85.2l291.2 0 0 153.45 -0.21 0zm109.49 -5.65l0 -147.59 42.91 0c14.87,0 29.1,5.44 40.2,15.49l134.61 121 -217.72 11.1z"/>
      <path class="fil0" d="M1570.1 566.49c-115.56,0 -208.93,93.58 -208.93,209.14 0,115.56 93.58,209.13 208.93,209.13 115.35,0 208.92,-93.57 208.92,-209.13 0,-115.56 -93.57,-209.14 -208.92,-209.14zm0 272.15c-34.76,0 -63.02,-28.26 -63.02,-63.01 0,-34.75 28.26,-63.02 63.02,-63.02 34.54,0 63.01,28.27 63.01,63.02 0,34.75 -28.26,63.01 -63.01,63.01z"/>
     </g>
    </g>
    <g>
    </g>
    <g>
    </g>
    <g>
    </g>
    <g>
    </g>
    <g>
    </g>
    <g>
    </g>
    <g>
    </g>
    <g>
    </g>
    <g>
    </g>
    <g>
    </g>
    <g>
    </g>
    <g>
    </g>
    <g>
    </g>
    <g>
    </g>
    <g>
    </g>
   </g>
  </g>
 </g>
</svg>
