<?xml version="1.0" encoding="UTF-8"?>
<!DOCTYPE svg PUBLIC "-//W3C//DTD SVG 1.1//EN" "http://www.w3.org/Graphics/SVG/1.1/DTD/svg11.dtd">
<!-- Creator: CorelDRAW 2021 (64-Bit) -->
<svg xmlns="http://www.w3.org/2000/svg" xml:space="preserve" width="12px" height="13px" version="1.1" style="shape-rendering:geometricPrecision; text-rendering:geometricPrecision; image-rendering:optimizeQuality; fill-rule:evenodd; clip-rule:evenodd"
viewBox="0 0 0.71 0.74"
 xmlns:xlink="http://www.w3.org/1999/xlink"
 xmlns:xodm="http://www.corel.com/coreldraw/odm/2003">
 <defs>
  <style type="text/css">
   <![CDATA[
    .fil0 {fill:#FFC2D5}
   ]]>
  </style>
 </defs>
 <g id="Слой_x0020_1">
  <metadata id="CorelCorpID_0Corel-Layer"/>
  <path class="fil0" d="M0.19 0.7c0,0 0.01,0 0.01,0l0.07 -0.02 0.04 0.06c0,0 0.01,0 0.01,0 0.09,-0.03 0.1,-0.12 0.13,-0.13 0.02,-0.01 0.09,0.06 0.18,0.03 0,0 0,0 0,0l0 -0.08 0.07 -0.02c0,0 0.01,0 0.01,0 0,-0.1 -0.09,-0.14 -0.09,-0.17 0,-0.03 0.09,-0.07 0.09,-0.16 0,-0.01 -0.01,-0.01 -0.01,-0.01l-0.07 -0.02 0 -0.08c0,0 0,0 0,0 -0.09,-0.03 -0.16,0.04 -0.18,0.03 -0.03,-0.01 -0.04,-0.1 -0.13,-0.13 0,0 -0.01,0 -0.01,0l-0.04 0.06 -0.07 -0.02c0,0 -0.01,0 -0.01,0 -0.05,0.08 -0.01,0.16 -0.03,0.18 -0.01,0.02 -0.1,0.01 -0.16,0.09 0,0 0,0 0,0l0.05 0.06 -0.05 0.06c0,0 0,0 0,0 0.06,0.08 0.15,0.07 0.16,0.09 0.02,0.02 -0.02,0.11 0.03,0.18z"/>
 </g>
</svg>
