<?xml version="1.0" encoding="UTF-8"?>
<!DOCTYPE svg PUBLIC "-//W3C//DTD SVG 1.1//EN" "http://www.w3.org/Graphics/SVG/1.1/DTD/svg11.dtd">
<!-- Creator: CorelDRAW 2021 (64-Bit) -->
<svg xmlns="http://www.w3.org/2000/svg" xml:space="preserve" width="3794px" height="2319px" version="1.1" style="shape-rendering:geometricPrecision; text-rendering:geometricPrecision; image-rendering:optimizeQuality; fill-rule:evenodd; clip-rule:evenodd"
viewBox="0 0 3757.56 2296.71"
 xmlns:xlink="http://www.w3.org/1999/xlink"
 xmlns:xodm="http://www.corel.com/coreldraw/odm/2003">
 <defs>
  <style type="text/css">
   <![CDATA[
    .fil3 {fill:#434242}
    .fil2 {fill:#5B5B5B}
    .fil4 {fill:#FEFEFE}
    .fil1 {fill:#434242;fill-rule:nonzero}
    .fil0 {fill:#5B5B5B;fill-rule:nonzero}
   ]]>
  </style>
 </defs>
 <g id="Слой_x0020_1">
  <metadata id="CorelCorpID_0Corel-Layer"/>
  <path class="fil0" d="M1146.85 53.83c306.53,0 581.66,124.11 782.02,324.47 200.36,200.36 324.47,475.49 324.47,782.01 0,305.04 -124.11,581.66 -324.47,780.53 -200.36,200.36 -475.49,324.46 -782.02,324.46 -305.03,0 -581.65,-124.1 -780.52,-324.46 -200.36,-198.87 -324.46,-475.49 -324.46,-780.53 0,-306.52 124.1,-581.65 324.46,-782.01 198.87,-200.36 475.49,-324.47 780.52,-324.47zm601.1 505.39c-154.01,-154.01 -366.34,-249.7 -601.09,-249.7 -234.76,0 -447.08,95.69 -599.6,249.7 -154.01,154.01 -249.71,366.34 -249.71,601.09 0,234.76 95.7,447.08 249.71,599.6 152.52,154.01 364.84,249.71 599.6,249.71 234.75,0 447.08,-95.7 601.09,-249.71 154.01,-152.52 249.7,-364.84 249.7,-599.6 0,-234.75 -95.69,-447.08 -249.7,-601.09z"/>
  <path class="fil1" d="M625.01 515.86c1.5,-1.49 2.99,-1.49 4.49,-2.99 140.55,-115.13 319.98,-183.91 515.86,-183.91 195.88,0 375.31,68.78 517.36,183.91 0,1.5 1.49,1.5 2.99,2.99 23.92,19.44 59.81,17.95 82.24,-2.99l149.52 -145.04c11.96,-11.96 19.44,-26.91 17.94,-46.35 0,-17.94 -7.47,-32.9 -20.93,-44.86 -201.86,-171.95 -462.03,-276.62 -747.63,-276.62 -1.49,0 -1.49,0 -1.49,0 0,0 0,0 0,0 -287.09,0 -547.26,104.67 -749.12,276.62 -13.46,11.96 -20.93,26.92 -20.93,44.86 0,19.44 5.98,34.39 19.43,47.85l148.03 143.54c22.43,22.43 58.32,22.43 82.24,2.99zm801.46 826.88l-77.76 22.42c-5.98,7.48 -10.46,14.96 -16.44,20.94 -2.99,2.99 -4.49,5.98 -5.98,8.97l8.97 8.97c-1.5,2.99 -2.99,4.49 -5.98,7.48 0,1.49 -4.49,2.99 -13.46,5.98l-1.5 2.99 -25.42 478.48c13.46,19.44 34.4,32.9 56.82,32.9 92.71,0 219.81,-73.27 308.03,-142.05 23.92,-19.44 58.31,-16.45 80.74,4.48l148.03 146.54c13.46,11.96 19.44,28.41 19.44,46.35 -1.5,17.94 -8.97,32.9 -22.43,44.86 -198.87,165.97 -454.56,264.66 -732.67,264.66 0,0 0,0 0,0l0 0c-1.5,0 -1.5,0 -1.5,0 0,0 0,0 0,0l0 0c0,0 0,0 0,0 -279.61,0 -535.3,-98.69 -734.17,-264.66 -13.45,-11.96 -20.93,-26.92 -22.43,-44.86 0,-17.94 5.99,-34.39 19.44,-47.85l148.03 -145.04c22.43,-20.93 56.82,-23.92 82.24,-4.48 86.73,68.78 213.82,142.05 306.53,142.05 22.43,0 43.36,-13.46 56.82,-32.9l-23.93 -463.53c-2.99,-2.99 -4.48,-5.98 -5.98,-8.97 -10.46,-8.97 -16.45,-17.94 -20.93,-23.92 -4.49,-4.49 -8.97,-10.47 -13.46,-16.45 -5.98,-5.98 -10.47,-13.46 -16.45,-20.93l-61.3 -17.95 -4.49 4.49 -11.96 -2.99c-1.49,-2.99 -2.99,-4.49 -2.99,-7.48l-7.47 -1.49 -1.5 -2.99 -16.45 -4.49c-1.49,-1.49 -2.99,-4.48 -2.99,-5.98l-7.47 -2.99c-2.99,-4.49 -5.99,-10.47 -7.48,-16.45l-433.62 -14.95c-11.97,13.46 -17.95,31.4 -13.46,50.84 26.91,107.65 74.76,207.84 137.56,293.07 19.44,25.42 16.45,59.81 -5.98,82.24l-148.03 143.54c-11.96,13.46 -28.41,19.44 -46.35,17.94 -19.44,-1.49 -34.39,-8.97 -44.86,-23.92 -62.8,-77.75 -113.64,-164.48 -152.51,-258.68 -58.32,-136.07 -89.72,-285.59 -89.72,-442.59 0,-261.67 86.73,-502.41 234.75,-695.3 10.47,-13.45 25.42,-22.42 44.86,-23.92 17.94,-1.49 34.39,4.49 47.85,17.94l154.01 148.03c20.93,20.94 25.42,53.83 7.48,79.25 -13.46,20.94 -22.43,40.37 -29.91,74.77 -1.49,8.97 -4.48,19.43 -7.48,28.4 -16.44,50.84 -47.84,89.72 -79.24,106.17 -8.98,4.48 -16.45,55.32 -20.94,64.29 71.77,-8.97 161.49,-17.94 275.13,-22.43 5.98,-14.95 11.96,-29.9 17.94,-44.85l103.17 -31.4c182.42,-279.62 592.12,-279.62 774.54,0 11.97,4.48 110.65,35.88 110.65,35.88 1.5,1.5 13.46,28.41 17.95,40.37 97.19,4.49 177.93,11.97 243.72,19.44l44.86 2.99c-4.49,-8.97 -11.96,-59.81 -20.93,-64.29 -31.4,-16.45 -62.8,-55.33 -79.25,-106.17 -2.99,-8.97 -5.98,-19.43 -7.48,-28.4 -5.98,-34.4 -16.45,-53.83 -29.9,-74.77 -16.45,-25.42 -13.46,-58.31 7.47,-79.25l155.51 -148.03c11.96,-13.45 28.41,-19.43 47.85,-17.94 17.94,1.5 32.89,10.47 43.36,23.92 148.03,192.89 234.75,433.63 234.75,695.3 0,157 -31.4,306.52 -88.22,442.59 -40.37,92.71 -91.21,180.93 -154.01,258.68 -10.46,14.95 -25.42,22.43 -44.85,23.92 -17.95,1.5 -34.4,-4.48 -46.36,-17.94l-148.03 -143.54c-22.43,-22.43 -25.42,-56.82 -5.98,-82.24 64.3,-85.23 110.65,-185.41 137.56,-293.07 4.49,-19.44 -1.49,-37.38 -13.45,-50.84l-441.1 14.95c-2.99,8.97 -5.98,17.95 -10.47,25.42l-23.92 7.48c-1.5,2.99 -2.99,5.98 -2.99,8.97l-13.46 2.99 -8.97 -8.97 0 0z"/>
  <circle class="fil2" cx="826.87" cy="1308.34" r="168.96"/>
  <circle class="fil3" cx="1463.85" cy="1308.34" r="168.96"/>
  <circle class="fil2" cx="1463.85" cy="1308.34" r="118.12"/>
  <circle class="fil4" cx="1145.36" cy="1154.33" r="128.59"/>
  <g id="XMLID_2480_">
   <g id="XMLID_2660_">
    <path class="fil1" d="M3672.33 1351.71l-167.46 0 0 -19.44c0,-80.75 -26.92,-122.61 -50.84,-161.49 -17.95,-28.41 -34.39,-56.82 -34.39,-95.69l0 -276.63 337.92 0 0 276.63c0,38.87 -16.44,67.28 -35.88,95.69 -22.43,38.88 -49.35,80.74 -49.35,161.49l0 19.44 0 0z"/>
   </g>
  </g>
  <g id="XMLID_400_">
   <g id="XMLID_2657_">
    <polygon class="fil1" points="3672.33,1462.35 3504.87,1462.35 3504.87,1381.61 3672.33,1381.61 "/>
   </g>
  </g>
  <g id="XMLID_2607_">
   <g id="XMLID_2627_">
    <rect class="fil1" x="3552.71" y="1332.27" width="71.77" height="442.59"/>
   </g>
  </g>
  <g id="XMLID_2607__0">
   <g id="XMLID_2627__1">
    <rect class="fil1" transform="matrix(2.1336E-14 -0.389145 2.34879 3.00489E-14 2327.3 1776.1)" width="183.92" height="551.75"/>
   </g>
  </g>
  <rect class="fil2" x="3461.5" y="539.79" width="252.7" height="234.75"/>
  <rect class="fil1" x="3524.3" y="602.59" width="43.36" height="43.36"/>
  <rect class="fil1" x="3609.53" y="602.59" width="43.36" height="43.36"/>
 </g>
</svg>
